<svg width="387" height="78" viewBox="0 0 387 78" fill="none" xmlns="http://www.w3.org/2000/svg">
<path d="M175.832 60.88C177.016 60.88 178.051 61.1093 178.936 61.568C179.832 62.016 180.52 62.6667 181 63.52C181.491 64.3627 181.736 65.3493 181.736 66.48C181.736 67.6107 181.491 68.592 181 69.424C180.52 70.256 179.832 70.896 178.936 71.344C178.051 71.7813 177.016 72 175.832 72H172.2V60.88H175.832ZM175.832 70.512C177.133 70.512 178.131 70.16 178.824 69.456C179.517 68.752 179.864 67.76 179.864 66.48C179.864 65.1893 179.517 64.1813 178.824 63.456C178.131 62.7307 177.133 62.368 175.832 62.368H174.024V70.512H175.832ZM183.832 62.016C183.501 62.016 183.224 61.904 183 61.68C182.776 61.456 182.664 61.1787 182.664 60.848C182.664 60.5173 182.776 60.24 183 60.016C183.224 59.792 183.501 59.68 183.832 59.68C184.152 59.68 184.424 59.792 184.648 60.016C184.872 60.24 184.984 60.5173 184.984 60.848C184.984 61.1787 184.872 61.456 184.648 61.68C184.424 61.904 184.152 62.016 183.832 62.016ZM184.728 63.184V72H182.904V63.184H184.728ZM188.307 64.464C188.573 64.016 188.925 63.6693 189.363 63.424C189.811 63.168 190.339 63.04 190.947 63.04V64.928H190.483C189.768 64.928 189.224 65.1093 188.851 65.472C188.488 65.8347 188.307 66.464 188.307 67.36V72H186.483V63.184H188.307V64.464ZM200.063 67.376C200.063 67.7067 200.042 68.0053 199.999 68.272H193.263C193.316 68.976 193.578 69.5413 194.047 69.968C194.516 70.3947 195.092 70.608 195.775 70.608C196.756 70.608 197.45 70.1973 197.855 69.376H199.823C199.556 70.1867 199.071 70.8533 198.367 71.376C197.674 71.888 196.81 72.144 195.775 72.144C194.932 72.144 194.175 71.9573 193.503 71.584C192.842 71.2 192.319 70.6667 191.935 69.984C191.562 69.2907 191.375 68.4907 191.375 67.584C191.375 66.6773 191.556 65.8827 191.919 65.2C192.292 64.5067 192.81 63.9733 193.471 63.6C194.143 63.2267 194.911 63.04 195.775 63.04C196.607 63.04 197.348 63.2213 197.999 63.584C198.65 63.9467 199.156 64.4587 199.519 65.12C199.882 65.7707 200.063 66.5227 200.063 67.376ZM198.159 66.8C198.148 66.128 197.908 65.5893 197.439 65.184C196.97 64.7787 196.388 64.576 195.695 64.576C195.066 64.576 194.527 64.7787 194.079 65.184C193.631 65.5787 193.364 66.1173 193.279 66.8H198.159ZM200.61 67.584C200.61 66.6773 200.791 65.8827 201.154 65.2C201.527 64.5067 202.039 63.9733 202.69 63.6C203.341 63.2267 204.087 63.04 204.93 63.04C205.997 63.04 206.877 63.296 207.57 63.808C208.274 64.3093 208.749 65.0293 208.994 65.968H207.026C206.866 65.5307 206.61 65.1893 206.258 64.944C205.906 64.6987 205.463 64.576 204.93 64.576C204.183 64.576 203.586 64.8427 203.138 65.376C202.701 65.8987 202.482 66.6347 202.482 67.584C202.482 68.5333 202.701 69.2747 203.138 69.808C203.586 70.3413 204.183 70.608 204.93 70.608C205.986 70.608 206.685 70.144 207.026 69.216H208.994C208.738 70.112 208.258 70.8267 207.554 71.36C206.85 71.8827 205.975 72.144 204.93 72.144C204.087 72.144 203.341 71.9573 202.69 71.584C202.039 71.2 201.527 70.6667 201.154 69.984C200.791 69.2907 200.61 68.4907 200.61 67.584ZM212.3 64.672V69.552C212.3 69.8827 212.375 70.1227 212.524 70.272C212.684 70.4107 212.951 70.48 213.324 70.48H214.444V72H213.004C212.183 72 211.553 71.808 211.116 71.424C210.679 71.04 210.46 70.416 210.46 69.552V64.672H209.42V63.184H210.46V60.992H212.3V63.184H214.444V64.672H212.3Z" fill="#676E7E"/>
<path d="M3.344 70.224H7.024V72H1.104V60.832H3.344V70.224ZM12.9918 72.112C11.9464 72.112 10.9864 71.8667 10.1118 71.376C9.23708 70.8853 8.54375 70.208 8.03175 69.344C7.51975 68.4693 7.26375 67.4827 7.26375 66.384C7.26375 65.296 7.51975 64.32 8.03175 63.456C8.54375 62.5813 9.23708 61.8987 10.1118 61.408C10.9864 60.9173 11.9464 60.672 12.9918 60.672C14.0478 60.672 15.0078 60.9173 15.8718 61.408C16.7464 61.8987 17.4344 62.5813 17.9358 63.456C18.4478 64.32 18.7038 65.296 18.7038 66.384C18.7038 67.4827 18.4478 68.4693 17.9358 69.344C17.4344 70.208 16.7464 70.8853 15.8718 71.376C14.9971 71.8667 14.0371 72.112 12.9918 72.112ZM12.9918 70.112C13.6638 70.112 14.2558 69.9627 14.7678 69.664C15.2798 69.3547 15.6798 68.9173 15.9678 68.352C16.2558 67.7867 16.3998 67.1307 16.3998 66.384C16.3998 65.6373 16.2558 64.9867 15.9678 64.432C15.6798 63.8667 15.2798 63.4347 14.7678 63.136C14.2558 62.8373 13.6638 62.688 12.9918 62.688C12.3198 62.688 11.7224 62.8373 11.1998 63.136C10.6878 63.4347 10.2878 63.8667 9.99975 64.432C9.71175 64.9867 9.56775 65.6373 9.56775 66.384C9.56775 67.1307 9.71175 67.7867 9.99975 68.352C10.2878 68.9173 10.6878 69.3547 11.1998 69.664C11.7224 69.9627 12.3198 70.112 12.9918 70.112ZM23.5862 72.112C22.8076 72.112 22.1036 71.9787 21.4742 71.712C20.8556 71.4453 20.3649 71.0613 20.0022 70.56C19.6396 70.0587 19.4529 69.4667 19.4422 68.784H21.8422C21.8742 69.2427 22.0342 69.6053 22.3222 69.872C22.6209 70.1387 23.0262 70.272 23.5382 70.272C24.0609 70.272 24.4716 70.1493 24.7702 69.904C25.0689 69.648 25.2182 69.3173 25.2182 68.912C25.2182 68.5813 25.1169 68.3093 24.9142 68.096C24.7116 67.8827 24.4556 67.7173 24.1462 67.6C23.8476 67.472 23.4316 67.3333 22.8982 67.184C22.1729 66.9707 21.5809 66.7627 21.1222 66.56C20.6742 66.3467 20.2849 66.032 19.9542 65.616C19.6342 65.1893 19.4742 64.624 19.4742 63.92C19.4742 63.2587 19.6396 62.6827 19.9702 62.192C20.3009 61.7013 20.7649 61.328 21.3622 61.072C21.9596 60.8053 22.6422 60.672 23.4102 60.672C24.5622 60.672 25.4956 60.9547 26.2102 61.52C26.9356 62.0747 27.3356 62.8533 27.4102 63.856H24.9462C24.9249 63.472 24.7596 63.1573 24.4502 62.912C24.1516 62.656 23.7516 62.528 23.2502 62.528C22.8129 62.528 22.4609 62.64 22.1942 62.864C21.9382 63.088 21.8102 63.4133 21.8102 63.84C21.8102 64.1387 21.9062 64.3893 22.0982 64.592C22.3009 64.784 22.5462 64.944 22.8342 65.072C23.1329 65.1893 23.5489 65.328 24.0822 65.488C24.8076 65.7013 25.3996 65.9147 25.8582 66.128C26.3169 66.3413 26.7116 66.6613 27.0422 67.088C27.3729 67.5147 27.5382 68.0747 27.5382 68.768C27.5382 69.3653 27.3836 69.92 27.0742 70.432C26.7649 70.944 26.3116 71.3547 25.7142 71.664C25.1169 71.9627 24.4076 72.112 23.5862 72.112Z" fill="#1D2433"/>
<path d="M366.96 72.112C366.181 72.112 365.477 71.9787 364.848 71.712C364.229 71.4453 363.739 71.0613 363.376 70.56C363.013 70.0587 362.827 69.4667 362.816 68.784H365.216C365.248 69.2427 365.408 69.6053 365.696 69.872C365.995 70.1387 366.4 70.272 366.912 70.272C367.435 70.272 367.845 70.1493 368.144 69.904C368.443 69.648 368.592 69.3173 368.592 68.912C368.592 68.5813 368.491 68.3093 368.288 68.096C368.085 67.8827 367.829 67.7173 367.52 67.6C367.221 67.472 366.805 67.3333 366.272 67.184C365.547 66.9707 364.955 66.7627 364.496 66.56C364.048 66.3467 363.659 66.032 363.328 65.616C363.008 65.1893 362.848 64.624 362.848 63.92C362.848 63.2587 363.013 62.6827 363.344 62.192C363.675 61.7013 364.139 61.328 364.736 61.072C365.333 60.8053 366.016 60.672 366.784 60.672C367.936 60.672 368.869 60.9547 369.584 61.52C370.309 62.0747 370.709 62.8533 370.784 63.856H368.32C368.299 63.472 368.133 63.1573 367.824 62.912C367.525 62.656 367.125 62.528 366.624 62.528C366.187 62.528 365.835 62.64 365.568 62.864C365.312 63.088 365.184 63.4133 365.184 63.84C365.184 64.1387 365.28 64.3893 365.472 64.592C365.675 64.784 365.92 64.944 366.208 65.072C366.507 65.1893 366.923 65.328 367.456 65.488C368.181 65.7013 368.773 65.9147 369.232 66.128C369.691 66.3413 370.085 66.6613 370.416 67.088C370.747 67.5147 370.912 68.0747 370.912 68.768C370.912 69.3653 370.757 69.92 370.448 70.432C370.139 70.944 369.685 71.3547 369.088 71.664C368.491 71.9627 367.781 72.112 366.96 72.112ZM374.454 60.832V72H372.214V60.832H374.454ZM385.579 72H383.339L378.267 64.336V72H376.027V60.816H378.267L383.339 68.496V60.816H385.579V72Z" fill="#1D2433"/>
<rect y="35" width="387" height="8" rx="4" fill="#E7F0FF"/>
<rect x="128" y="35" width="130" height="8" rx="4" fill="#0D6EFD"/>
<path d="M134.832 6.88C136.016 6.88 137.051 7.10933 137.936 7.568C138.832 8.016 139.52 8.66667 140 9.52C140.491 10.3627 140.736 11.3493 140.736 12.48C140.736 13.6107 140.491 14.592 140 15.424C139.52 16.256 138.832 16.896 137.936 17.344C137.051 17.7813 136.016 18 134.832 18H131.2V6.88H134.832ZM134.832 16.512C136.133 16.512 137.131 16.16 137.824 15.456C138.517 14.752 138.864 13.76 138.864 12.48C138.864 11.1893 138.517 10.1813 137.824 9.456C137.131 8.73067 136.133 8.368 134.832 8.368H133.024V16.512H134.832ZM149.888 9.184V18H148.064V16.96C147.776 17.3227 147.397 17.6107 146.928 17.824C146.469 18.0267 145.978 18.128 145.456 18.128C144.762 18.128 144.138 17.984 143.584 17.696C143.04 17.408 142.608 16.9813 142.288 16.416C141.978 15.8507 141.824 15.168 141.824 14.368V9.184H143.632V14.096C143.632 14.8853 143.829 15.4933 144.224 15.92C144.618 16.336 145.157 16.544 145.84 16.544C146.522 16.544 147.061 16.336 147.456 15.92C147.861 15.4933 148.064 14.8853 148.064 14.096V9.184H149.888ZM153.478 10.464C153.745 10.016 154.097 9.66933 154.534 9.424C154.982 9.168 155.51 9.04 156.118 9.04V10.928H155.654C154.94 10.928 154.396 11.1093 154.022 11.472C153.66 11.8347 153.478 12.464 153.478 13.36V18H151.654V9.184H153.478V10.464ZM156.547 13.552C156.547 12.6667 156.728 11.8827 157.091 11.2C157.464 10.5173 157.966 9.98933 158.595 9.616C159.235 9.232 159.939 9.04 160.707 9.04C161.4 9.04 162.003 9.17867 162.515 9.456C163.038 9.72267 163.454 10.0587 163.763 10.464V9.184H165.603V18H163.763V16.688C163.454 17.104 163.032 17.4507 162.499 17.728C161.966 18.0053 161.358 18.144 160.675 18.144C159.918 18.144 159.224 17.952 158.595 17.568C157.966 17.1733 157.464 16.6293 157.091 15.936C156.728 15.232 156.547 14.4373 156.547 13.552ZM163.763 13.584C163.763 12.976 163.635 12.448 163.379 12C163.134 11.552 162.808 11.2107 162.403 10.976C161.998 10.7413 161.56 10.624 161.091 10.624C160.622 10.624 160.184 10.7413 159.779 10.976C159.374 11.2 159.043 11.536 158.787 11.984C158.542 12.4213 158.419 12.944 158.419 13.552C158.419 14.16 158.542 14.6933 158.787 15.152C159.043 15.6107 159.374 15.9627 159.779 16.208C160.195 16.4427 160.632 16.56 161.091 16.56C161.56 16.56 161.998 16.4427 162.403 16.208C162.808 15.9733 163.134 15.632 163.379 15.184C163.635 14.7253 163.763 14.192 163.763 13.584ZM169.487 10.672V15.552C169.487 15.8827 169.561 16.1227 169.711 16.272C169.871 16.4107 170.137 16.48 170.511 16.48H171.631V18H170.191C169.369 18 168.74 17.808 168.303 17.424C167.865 17.04 167.647 16.416 167.647 15.552V10.672H166.607V9.184H167.647V6.992H169.487V9.184H171.631V10.672H169.487ZM173.6 8.016C173.269 8.016 172.992 7.904 172.768 7.68C172.544 7.456 172.432 7.17867 172.432 6.848C172.432 6.51733 172.544 6.24 172.768 6.016C172.992 5.792 173.269 5.68 173.6 5.68C173.92 5.68 174.192 5.792 174.416 6.016C174.64 6.24 174.752 6.51733 174.752 6.848C174.752 7.17867 174.64 7.456 174.416 7.68C174.192 7.904 173.92 8.016 173.6 8.016ZM174.496 9.184V18H172.672V9.184H174.496ZM180.075 18.144C179.243 18.144 178.491 17.9573 177.819 17.584C177.147 17.2 176.619 16.6667 176.235 15.984C175.851 15.2907 175.659 14.4907 175.659 13.584C175.659 12.688 175.856 11.8933 176.251 11.2C176.645 10.5067 177.184 9.97333 177.867 9.6C178.549 9.22667 179.312 9.04 180.155 9.04C180.997 9.04 181.76 9.22667 182.443 9.6C183.125 9.97333 183.664 10.5067 184.059 11.2C184.453 11.8933 184.651 12.688 184.651 13.584C184.651 14.48 184.448 15.2747 184.043 15.968C183.637 16.6613 183.083 17.2 182.379 17.584C181.685 17.9573 180.917 18.144 180.075 18.144ZM180.075 16.56C180.544 16.56 180.981 16.448 181.387 16.224C181.803 16 182.139 15.664 182.395 15.216C182.651 14.768 182.779 14.224 182.779 13.584C182.779 12.944 182.656 12.4053 182.411 11.968C182.165 11.52 181.84 11.184 181.435 10.96C181.029 10.736 180.592 10.624 180.123 10.624C179.653 10.624 179.216 10.736 178.811 10.96C178.416 11.184 178.101 11.52 177.867 11.968C177.632 12.4053 177.515 12.944 177.515 13.584C177.515 14.5333 177.755 15.2693 178.235 15.792C178.725 16.304 179.339 16.56 180.075 16.56ZM190.262 9.04C190.955 9.04 191.574 9.184 192.118 9.472C192.672 9.76 193.104 10.1867 193.414 10.752C193.723 11.3173 193.878 12 193.878 12.8V18H192.07V13.072C192.07 12.2827 191.872 11.68 191.478 11.264C191.083 10.8373 190.544 10.624 189.862 10.624C189.179 10.624 188.635 10.8373 188.23 11.264C187.835 11.68 187.638 12.2827 187.638 13.072V18H185.814V9.184H187.638V10.192C187.936 9.82933 188.315 9.54667 188.774 9.344C189.243 9.14133 189.739 9.04 190.262 9.04ZM196.3 18.112C195.97 18.112 195.692 18 195.468 17.776C195.244 17.552 195.132 17.2747 195.132 16.944C195.132 16.6133 195.244 16.336 195.468 16.112C195.692 15.888 195.97 15.776 196.3 15.776C196.62 15.776 196.892 15.888 197.116 16.112C197.34 16.336 197.452 16.6133 197.452 16.944C197.452 17.2747 197.34 17.552 197.116 17.776C196.892 18 196.62 18.112 196.3 18.112ZM196.3 11.392C195.97 11.392 195.692 11.28 195.468 11.056C195.244 10.832 195.132 10.5547 195.132 10.224C195.132 9.89333 195.244 9.616 195.468 9.392C195.692 9.168 195.97 9.056 196.3 9.056C196.62 9.056 196.892 9.168 197.116 9.392C197.34 9.616 197.452 9.89333 197.452 10.224C197.452 10.5547 197.34 10.832 197.116 11.056C196.892 11.28 196.62 11.392 196.3 11.392ZM201.882 8V6.336H205.21V18H203.37V8H201.882ZM211.876 9.04C212.548 9.04 213.146 9.184 213.668 9.472C214.202 9.76 214.618 10.1867 214.916 10.752C215.226 11.3173 215.38 12 215.38 12.8V18H213.572V13.072C213.572 12.2827 213.375 11.68 212.98 11.264C212.586 10.8373 212.047 10.624 211.364 10.624C210.682 10.624 210.138 10.8373 209.732 11.264C209.338 11.68 209.14 12.2827 209.14 13.072V18H207.316V6.16H209.14V10.208C209.45 9.83467 209.839 9.54667 210.308 9.344C210.788 9.14133 211.311 9.04 211.876 9.04ZM220.119 15.568V14.192L225.495 6.48H227.703V13.984H229.191V15.568H227.703V18H225.911V15.568H220.119ZM225.991 8.336L222.215 13.984H225.991V8.336ZM237.583 7.904H232.223V11.088C232.447 10.7893 232.777 10.5387 233.215 10.336C233.663 10.1333 234.137 10.032 234.639 10.032C235.535 10.032 236.26 10.224 236.815 10.608C237.38 10.992 237.78 11.4773 238.015 12.064C238.26 12.6507 238.383 13.2693 238.383 13.92C238.383 14.7093 238.228 15.4133 237.919 16.032C237.62 16.64 237.167 17.12 236.559 17.472C235.961 17.824 235.225 18 234.351 18C233.188 18 232.255 17.712 231.551 17.136C230.847 16.56 230.425 15.7973 230.287 14.848H232.063C232.18 15.3493 232.441 15.7493 232.847 16.048C233.252 16.336 233.759 16.48 234.367 16.48C235.124 16.48 235.689 16.2507 236.063 15.792C236.447 15.3333 236.639 14.7253 236.639 13.968C236.639 13.2 236.447 12.6133 236.063 12.208C235.679 11.792 235.113 11.584 234.367 11.584C233.844 11.584 233.401 11.7173 233.039 11.984C232.687 12.24 232.431 12.592 232.271 13.04H230.543V6.304H237.583V7.904ZM250.553 9.04C251.247 9.04 251.865 9.184 252.409 9.472C252.964 9.76 253.396 10.1867 253.705 10.752C254.025 11.3173 254.185 12 254.185 12.8V18H252.377V13.072C252.377 12.2827 252.18 11.68 251.785 11.264C251.391 10.8373 250.852 10.624 250.169 10.624C249.487 10.624 248.943 10.8373 248.537 11.264C248.143 11.68 247.945 12.2827 247.945 13.072V18H246.137V13.072C246.137 12.2827 245.94 11.68 245.545 11.264C245.151 10.8373 244.612 10.624 243.929 10.624C243.247 10.624 242.703 10.8373 242.297 11.264C241.903 11.68 241.705 12.2827 241.705 13.072V18H239.881V9.184H241.705V10.192C242.004 9.82933 242.383 9.54667 242.841 9.344C243.3 9.14133 243.791 9.04 244.313 9.04C245.017 9.04 245.647 9.18933 246.201 9.488C246.756 9.78667 247.183 10.2187 247.481 10.784C247.748 10.2507 248.164 9.82933 248.729 9.52C249.295 9.2 249.903 9.04 250.553 9.04Z" fill="#676E7E"/>
<path d="M14.0624 18.8748C14.0624 19.1235 13.9636 19.3619 13.7878 19.5377C13.612 19.7135 13.3735 19.8123 13.1249 19.8123H1.87487C1.62623 19.8123 1.38777 19.7135 1.21196 19.5377C1.03614 19.3619 0.937369 19.1235 0.937369 18.8748C0.937369 18.6262 1.03614 18.3877 1.21196 18.2119C1.38777 18.0361 1.62623 17.9373 1.87487 17.9373H13.1249C13.3735 17.9373 13.612 18.0361 13.7878 18.2119C13.9636 18.3877 14.0624 18.6262 14.0624 18.8748ZM19.671 9.02169C19.6466 9.15238 19.5947 9.27639 19.5187 9.38549C19.4428 9.4946 19.3445 9.58629 19.2303 9.6545L7.71471 16.5311L7.70456 16.5365C7.06625 16.9113 6.32351 17.0687 5.58806 16.985C4.85261 16.9013 4.16422 16.5811 3.62643 16.0725L3.61159 16.0584L0.799087 13.3045C0.613843 13.128 0.474782 12.9087 0.394121 12.6659C0.31346 12.423 0.293668 12.1641 0.336484 11.9118C0.379299 11.6596 0.483413 11.4217 0.639676 11.2191C0.79594 11.0165 0.999572 10.8553 1.23268 10.7498L1.46237 10.6373C1.68449 10.5286 1.94059 10.512 2.17487 10.5912L4.24518 11.2897L5.35065 10.6209L3.93893 9.24825C3.74796 9.07136 3.60421 8.84956 3.52074 8.60299C3.43727 8.35643 3.41672 8.09292 3.46096 7.8364C3.50521 7.57988 3.61283 7.33848 3.77407 7.13412C3.93531 6.92976 4.14505 6.76892 4.38424 6.66622L4.42174 6.65059L4.98034 6.43966C5.19194 6.36059 5.42498 6.36059 5.63659 6.43966L9.71002 7.93731L13.6108 5.60919C14.3169 5.18807 15.1511 5.03526 15.9606 5.17872C16.7702 5.32219 17.501 5.75232 18.0194 6.39044C18.0243 6.39582 18.0287 6.40157 18.0327 6.40762L19.4889 8.27325C19.5708 8.37785 19.6294 8.49873 19.6608 8.6278C19.6922 8.75688 19.6957 8.89117 19.671 9.02169ZM17.3577 8.58887L16.5624 7.56934C16.3266 7.28202 15.9957 7.08872 15.6296 7.02451C15.2635 6.96029 14.8865 7.02942 14.5671 7.21934L10.2881 9.77403C10.1683 9.84627 10.0339 9.89077 9.89466 9.90429C9.75542 9.91781 9.61492 9.9 9.48346 9.85216L5.88971 8.52872L7.53034 10.1225C7.63307 10.2223 7.71155 10.3444 7.75974 10.4794C7.80794 10.6143 7.82456 10.7585 7.80834 10.9008C7.79212 11.0432 7.74349 11.1799 7.66618 11.3006C7.58887 11.4212 7.48494 11.5225 7.36237 11.5967L4.84362 13.1162C4.72738 13.1862 4.59732 13.2302 4.46243 13.245C4.32755 13.2598 4.19105 13.2452 4.06237 13.2022L3.0194 12.8506L4.91862 14.71C5.16281 14.9382 5.47407 15.0816 5.8062 15.1189C6.13834 15.1561 6.47365 15.0854 6.76237 14.917L17.3577 8.58887Z" fill="#475367"/>
<path d="M386.688 18.8745C386.688 19.1231 386.589 19.3616 386.413 19.5374C386.237 19.7132 385.999 19.812 385.75 19.812H374.5C374.251 19.812 374.013 19.7132 373.837 19.5374C373.661 19.3616 373.563 19.1231 373.563 18.8745C373.563 18.6259 373.661 18.3874 373.837 18.2116C374.013 18.0358 374.251 17.937 374.5 17.937H385.75C385.999 17.937 386.237 18.0358 386.413 18.2116C386.589 18.3874 386.688 18.6259 386.688 18.8745ZM384.247 16.9643L370.448 13.1003C369.727 12.8966 369.091 12.4632 368.638 11.8659C368.185 11.2686 367.939 10.5399 367.938 9.79012V5.7495C367.937 5.50178 367.996 5.25755 368.108 5.03694C368.221 4.81632 368.385 4.62566 368.585 4.48067C368.786 4.33568 369.019 4.24052 369.264 4.20304C369.508 4.16557 369.759 4.18685 369.994 4.26512L370.422 4.40809C370.556 4.45283 370.679 4.52737 370.78 4.62614C370.881 4.72491 370.959 4.84534 371.007 4.9784L371.781 7.12372L373.563 7.63153V5.7495C373.562 5.50178 373.621 5.25755 373.733 5.03694C373.846 4.81632 374.01 4.62566 374.21 4.48067C374.411 4.33568 374.644 4.24052 374.889 4.20304C375.133 4.16557 375.384 4.18685 375.619 4.26512L376.047 4.40809C376.174 4.45033 376.29 4.51917 376.388 4.60998C376.486 4.70079 376.563 4.81149 376.615 4.93465L378.314 8.98544L382.923 10.2737C383.646 10.4769 384.283 10.9104 384.737 11.5084C385.19 12.1065 385.436 12.8363 385.438 13.587V16.062C385.437 16.2067 385.404 16.3494 385.34 16.479C385.275 16.6085 385.182 16.7214 385.066 16.8088C384.951 16.8962 384.817 16.9557 384.675 16.9827C384.533 17.0097 384.386 17.0034 384.247 16.9643ZM383.563 13.587C383.562 13.2456 383.45 12.9138 383.243 12.6421C383.036 12.3703 382.747 12.1735 382.418 12.0815L377.373 10.6714C377.236 10.6334 377.111 10.5651 377.005 10.4716C376.898 10.3781 376.815 10.2619 376.76 10.1315L375.438 6.97684V8.8745C375.437 9.01949 375.404 9.16248 375.339 9.29223C375.274 9.42197 375.18 9.53493 375.064 9.62223C374.949 9.70953 374.814 9.76879 374.672 9.79534C374.529 9.8219 374.382 9.81503 374.243 9.77528L370.805 8.79637C370.663 8.75571 370.531 8.68165 370.423 8.58032C370.314 8.47899 370.231 8.35328 370.18 8.21356L369.813 7.19325V9.79012C369.813 10.1312 369.925 10.4627 370.131 10.7345C370.337 11.0063 370.626 11.2036 370.954 11.2964L383.563 14.8261V13.587Z" fill="#475367"/>
</svg>
